<svg width="133" height="40" viewBox="0 0 133 40" fill="none" xmlns="http://www.w3.org/2000/svg">
  <path d="M8.71815 34.052C3.06857 34.052 0 30.1221 0 25.1981C0 20.222 3.61194 16.1504 9.54255 16.1504C11.1168 16.1504 12.4846 16.3496 13.67 16.9472V20.1557C12.472 19.4349 11.0846 19.0612 9.67279 19.079C5.6496 19.079 4.16462 21.9501 4.16462 24.9505C4.16462 28.3079 6.03666 30.9691 9.31178 30.9691C10.7558 30.9691 11.917 30.5833 13.3126 29.8619L14.3157 32.4621C12.2278 33.7308 10.445 34.0538 8.71815 34.0538V34.052ZM72.2466 34.0538C68.069 34.0538 65.9193 31.0947 65.9193 27.5614C65.9193 23.6136 68.757 20.9955 72.5495 20.9955C74.2245 20.9955 75.1029 21.3185 75.7988 21.7132V24.5485C74.8685 23.9025 74.1238 23.6782 73.0914 23.6782C70.9496 23.6782 69.5722 25.1963 69.5722 27.3837C69.5722 29.3487 70.6401 31.2652 73.0394 31.2652C73.709 31.2652 74.5965 30.9853 75.5512 30.5133L76.4447 32.8569C75.3596 33.5531 73.5543 34.0502 72.2387 34.0502L72.2466 34.0538ZM83.8637 24.0766V33.8007H80.1417V24.0783H76.5448V21.2431H87.9466L87.1407 24.0783L83.8637 24.0766ZM101.825 22.7092C101.825 27.0859 101.639 29.3738 100.82 30.4254C100.393 30.9495 99.775 31.2967 99.0916 31.3962L100.122 34.0574C100.975 34.0322 102.29 33.6841 103.193 32.8138C104.38 31.6941 104.765 30.2764 104.946 28.7834C105.111 27.4296 105.198 26.0679 105.204 24.7046V24.0837H108.116V33.8079H111.839V21.2467H101.833L101.825 22.7092ZM59.7171 20.9955C58.2731 20.9955 57.164 21.6684 56.2094 22.3898L55.7963 21.2449H52.6756V39.9253L56.3973 38.8307V33.5298C57.1756 33.8964 58.0344 34.0756 58.9002 34.052C62.7429 34.052 65.0634 30.8937 65.0634 27.163C65.056 23.1829 62.7113 20.9955 59.7171 20.9955ZM57.9902 31.468C57.4162 31.467 56.8566 31.2933 56.3899 30.9709V25.024C56.8291 24.378 57.9902 23.6064 58.969 23.6064C60.4578 23.6064 61.3417 24.527 61.3417 27.1146C61.3417 29.25 60.5173 31.4661 57.9902 31.4661V31.468ZM93.2857 20.9955C91.5303 20.9955 89.8316 21.2574 88.0486 22.37L89.1653 24.5378C90.1773 23.9824 91.321 23.6894 92.485 23.6872C93.7729 23.6872 94.9245 24.2362 94.9245 25.557V25.7705L92.6733 25.8531C89.3865 25.959 87.167 27.3335 87.167 29.9804C87.167 32.4675 89.0277 34.052 91.4954 34.052C92.8544 34.0799 94.1719 33.5966 95.1687 32.7044L95.7455 33.8044H98.6524V25.6467C98.6597 22.3413 96.741 20.9955 93.2857 20.9955ZM94.9324 30.6964C94.3174 31.0952 93.5885 31.2985 92.8478 31.2778C91.5843 31.2778 90.8739 30.6694 90.8739 29.7202C90.8739 28.7709 91.6403 28.2397 93.2317 28.1859L94.9324 28.1338V30.6964ZM119.046 25.3237H117.136V20.6958L113.414 21.6558V33.8044H118.165C121.621 33.8044 124.846 32.9071 124.846 29.451C124.849 26.517 122.244 25.3219 119.046 25.3219V25.3237ZM118.426 31.328H117.136V27.8144H118.375C119.689 27.8144 121.135 28.0136 121.135 29.5048C121.135 30.996 119.896 31.3262 118.426 31.3262V31.328ZM35.9892 26.9656V26.8651C37.2006 26.6175 38.2073 25.8459 38.2073 24.204C38.2073 22.2444 36.5009 21.5302 34.8243 21.3131C34.3107 21.2467 33.1849 21.2449 32.5577 21.2449H27.2487V33.8061H31.7148C32.2079 33.8061 32.943 33.8061 33.5161 33.7882C35.8608 33.6806 38.7563 32.873 38.7563 29.9498C38.7489 28.1572 37.7421 27.2617 35.9892 26.9639V26.9656ZM31.0355 23.6369H32.5652C34.0855 23.6369 34.6549 24.0855 34.6549 24.8571C34.6549 25.8261 33.7245 26.124 32.1782 26.124H31.043L31.0355 23.6369ZM32.4796 31.4231H30.9574V28.3366H32.2991C34.0781 28.3366 35.0327 28.735 35.0327 29.8547C35.0327 31.0444 33.7692 31.4213 32.4796 31.4213V31.4231ZM26.0261 27.4143C26.0261 23.5328 23.5493 20.9955 19.9894 20.9955C16.0946 20.9955 13.9026 24.0299 13.9026 27.5632C13.9026 30.8704 15.8118 34.0538 20.4547 34.0538C22.2732 34.0627 24.0556 33.5642 25.587 32.6182L24.7607 30.3554C23.2906 31.0283 22.3416 31.2526 21.0725 31.2526C19.3437 31.2526 17.6931 30.2082 17.615 28.516H26.0261V27.4143ZM17.5387 26.0469C17.5387 24.902 18.3909 23.6082 19.8852 23.6082C21.4614 23.6082 22.1555 24.8518 22.2336 26.0469H17.5387ZM51.613 27.4143C51.613 23.5328 49.1363 20.9955 45.5764 20.9955C41.6816 20.9955 39.4895 24.0299 39.4895 27.5632C39.4895 30.8704 41.3988 34.0538 46.0416 34.0538C47.8602 34.063 49.6426 33.5644 51.1739 32.6182L50.3477 30.3554C48.8794 31.0283 47.9285 31.2526 46.6594 31.2526C44.9325 31.2526 43.2819 30.2082 43.2038 28.516H51.613V27.4143ZM43.1256 26.0469C43.1256 24.902 43.9779 23.6082 45.4722 23.6082C47.0465 23.6082 47.7425 24.8518 47.8206 26.0469H43.1256Z" fill="currentColor" />
  <path d="M131.461 12.3695C131.262 12.5071 131.043 12.6148 130.809 12.6888C130.065 12.9132 129.168 12.7068 128.354 12.3856C127.721 12.1321 127.11 11.8309 126.528 11.4848C126.893 10.6154 127.198 9.72332 127.44 8.81463C127.812 7.48117 128.03 6.11198 128.089 4.73222C128.117 4.05792 128.084 3.38261 127.994 2.71345C127.879 1.87184 127.613 1.01588 127.043 0.509843C126.849 0.34851 126.632 0.2155 126.397 0.115061C127.429 0.00294613 128.469 -0.0192755 129.505 0.0486653C130.464 0.127622 131.439 0.355518 132.008 0.893858C132.577 1.43219 132.829 2.3707 132.939 3.28947C133.033 4.28482 133.026 5.28666 132.92 6.28084C132.789 7.53488 132.555 8.77697 132.22 9.99539C131.993 10.8459 131.729 11.6642 131.461 12.3695ZM117.421 11.6732C117.398 11.4375 117.411 11.1999 117.46 10.968C117.625 10.2502 118.263 9.58986 118.96 9.06942C119.506 8.66701 120.085 8.30694 120.69 7.99278C121.287 8.73532 121.935 9.43799 122.631 10.0959C123.645 11.0739 124.769 11.9405 125.981 12.6799C126.573 13.0397 127.195 13.3512 127.841 13.6112C128.654 13.936 129.557 14.1495 130.296 13.9163C130.539 13.8373 130.767 13.7222 130.973 13.5753C130.561 14.4932 130.062 15.373 129.485 16.2042C128.926 16.9651 128.244 17.6667 127.475 17.8713C126.706 18.0758 125.739 17.8193 124.87 17.4424C123.924 17.0252 123.022 16.5203 122.177 15.9351C121.12 15.1975 120.124 14.3809 119.2 13.4928C118.521 12.8791 117.923 12.2546 117.421 11.6732ZM125.05 0.290918C125.274 0.388149 125.481 0.517636 125.665 0.674931C126.232 1.17738 126.5 2.03693 126.619 2.87854C126.706 3.533 126.737 4.19309 126.714 4.85245C125.75 4.98083 124.797 5.17269 123.861 5.42668C122.477 5.78204 121.139 6.28395 119.87 6.92326C119.25 7.23812 118.66 7.6025 118.103 8.01247C117.406 8.52929 116.769 9.18072 116.602 9.90923C116.551 10.152 116.541 10.4008 116.571 10.6468C115.952 9.84148 115.412 8.98383 114.955 8.08428C114.547 7.24269 114.263 6.31494 114.462 5.57203C114.661 4.82912 115.379 4.14722 116.155 3.59812C117.003 3.01709 117.908 2.51649 118.855 2.10332C120.048 1.58667 121.28 1.16127 122.542 0.831052C123.411 0.608538 124.271 0.423708 125.05 0.290918Z" fill="currentColor" />
</svg>