<svg width="16" height="28" viewBox="0 0 16 28" fill="none" xmlns="http://www.w3.org/2000/svg">
  <path fill-rule="evenodd" clip-rule="evenodd" d="M3.32927 9C2.87128 9 2.5 9.44772 2.5 10C2.5 10.5523 2.87128 11 3.32927 11H12.6707C13.1287 11 13.5 10.5523 13.5 10C13.5 9.44772 13.1287 9 12.6707 9H3.32927ZM4.00038 14C4.00038 13.4477 4.42677 13 4.95276 13H11.0474C11.5734 13 11.9998 13.4477 11.9998 14C11.9998 14.5522 11.5734 15 11.0474 15H4.95276C4.42677 15 4.00038 14.5522 4.00038 14ZM6 18C6 17.4477 6.37127 17 6.82927 17H9.17071C9.6287 17 9.99998 17.4477 9.99998 18C9.99998 18.5523 9.6287 19 9.17071 19H6.82927C6.37127 19 6 18.5523 6 18Z" fill="currentColor" />
</svg>